<?xml version="1.0" encoding="UTF-8" standalone="no"?>
<!-- Created with Inkscape (http://www.inkscape.org/) -->

<svg
   xmlns:dc="http://purl.org/dc/elements/1.1/"
   xmlns:cc="http://creativecommons.org/ns#"
   xmlns:rdf="http://www.w3.org/1999/02/22-rdf-syntax-ns#"
   xmlns:svg="http://www.w3.org/2000/svg"
   xmlns="http://www.w3.org/2000/svg"
   xmlns:sodipodi="http://sodipodi.sourceforge.net/DTD/sodipodi-0.dtd"
   xmlns:inkscape="http://www.inkscape.org/namespaces/inkscape"
   width="128.40817mm"
   height="95.719139mm"
   viewBox="0 0 128.40817 95.719139"
   version="1.1"
   id="svg8"
   inkscape:version="0.92.3 (2405546, 2018-03-11)"
   sodipodi:docname="corresponding_topology.svg">
  <sodipodi:namedview
     id="base"
     pagecolor="#ffffff"
     bordercolor="#666666"
     borderopacity="1.0"
     inkscape:pageopacity="0.0"
     inkscape:pageshadow="2"
     inkscape:zoom="0.98994949"
     inkscape:cx="227.97986"
     inkscape:cy="4.8072037"
     inkscape:document-units="mm"
     inkscape:current-layer="layer3"
     showgrid="false"
     inkscape:window-width="2560"
     inkscape:window-height="1404"
     inkscape:window-x="1920"
     inkscape:window-y="0"
     inkscape:window-maximized="1"
     width="209mm"
     fit-margin-top="0"
     fit-margin-left="0"
     fit-margin-right="0"
     fit-margin-bottom="0" />
  <defs
     id="defs2" />
  <metadata
     id="metadata5">
    <rdf:RDF>
      <cc:Work
         rdf:about="">
        <dc:format>image/svg+xml</dc:format>
        <dc:type
           rdf:resource="http://purl.org/dc/dcmitype/StillImage" />
        <dc:title></dc:title>
      </cc:Work>
    </rdf:RDF>
  </metadata>
  <g
     id="layer1"
     inkscape:groupmode="layer"
     inkscape:label="Layer 1"
     transform="translate(-39.959302,-51.980681)"
     style="display:none">
    <path
       inkscape:connector-curvature="0"
       id="path12"
       d="m 61.928825,105.37353 c -19.593537,4.63977 -23.001104,8.47959 -21.58128,11.67944 1.419813,3.19984 6.247214,17.59914 13.914242,17.59914 7.667038,0 28.680393,0.15999 29.532286,4.15979 0.851894,3.99981 18.741637,9.75953 25.556777,8.63958 6.81515,-1.11994 16.46993,0.63997 40.32293,-7.67962 23.85299,-8.31959 19.30957,-10.2395 15.61804,-15.99922 -3.69155,-5.75972 -33.79176,-5.11975 -45.71826,-11.51945 -11.9265,-6.39968 -16.18596,-10.55948 -28.680385,-11.83942 -12.494423,-1.279938 -28.96435,4.95976 -28.96435,4.95976 z"
       style="fill:none;stroke:#000000;stroke-width:0.21100573px;stroke-linecap:butt;stroke-linejoin:miter;stroke-opacity:1" />
    <path
       inkscape:connector-curvature="0"
       d="m 82.001958,100.29066 -3.614061,17.8737"
       style="fill:none;stroke:#000000;stroke-width:0.21100573;stroke-linecap:round;stroke-linejoin:round"
       id="path861"
       sodipodi:nodetypes="cc" />
    <path
       inkscape:connector-curvature="0"
       d="m 78.387897,118.16436 16.704285,13.14749"
       style="fill:none;stroke:#000000;stroke-width:0.21100573;stroke-linecap:round;stroke-linejoin:round"
       id="path863" />
    <path
       inkscape:connector-curvature="0"
       d="m 95.092182,131.31185 31.405728,-3.60972"
       style="fill:none;stroke:#000000;stroke-width:0.21100573;stroke-linecap:round;stroke-linejoin:round"
       id="path865" />
    <path
       inkscape:connector-curvature="0"
       d="m 131.32264,116.29678 -4.82473,11.40535"
       style="fill:none;stroke:#000000;stroke-width:0.21100573;stroke-linecap:round;stroke-linejoin:round"
       id="path867"
       sodipodi:nodetypes="cc" />
    <path
       inkscape:connector-curvature="0"
       d="M 48.917651,132.73219 78.387897,118.16436"
       style="fill:none;stroke:#000000;stroke-width:0.21100573;stroke-linecap:round;stroke-linejoin:round"
       id="path869"
       sodipodi:nodetypes="cc" />
    <path
       inkscape:connector-curvature="0"
       d="m 126.49791,127.70213 12.77965,15.26659"
       style="fill:none;stroke:#000000;stroke-width:0.21100573;stroke-linecap:round;stroke-linejoin:round"
       id="path871"
       sodipodi:nodetypes="cc" />
    <path
       inkscape:connector-curvature="0"
       d="m 95.092182,131.31185 -8.914477,9.87643"
       style="fill:none;stroke:#000000;stroke-width:0.21100573;stroke-linecap:round;stroke-linejoin:round"
       id="path873"
       sodipodi:nodetypes="cc" />
    <path
       style="opacity:1;fill:none;stroke:#000000;stroke-width:0.21100573px;stroke-linecap:butt;stroke-linejoin:miter;stroke-opacity:1"
       d="m 61.928825,57.219303 c -19.593537,4.639746 -23.001104,8.479542 -21.58128,11.679374 1.419813,3.199822 6.247214,17.599041 13.914242,17.599041 7.667038,0 28.680393,0.15999 29.532286,4.159766 0.851894,3.999789 18.741637,9.759476 25.556777,8.639532 6.81515,-1.119934 16.46993,0.639967 40.32293,-7.679578 23.85299,-8.319542 19.30957,-10.23944 15.61804,-15.999127 -3.69155,-5.75969 -33.79176,-5.119723 -45.71826,-11.519387 -11.9265,-6.399644 -16.18596,-10.55942 -28.680385,-11.839351 -12.494423,-1.279938 -28.96435,4.95973 -28.96435,4.95973 z"
       id="path1964"
       inkscape:connector-curvature="0" />
    <path
       sodipodi:nodetypes="cc"
       id="path1966"
       style="opacity:1;fill:none;stroke:#000000;stroke-width:0.21100573;stroke-linecap:round;stroke-linejoin:round"
       d="M 82.001958,52.136463 78.387897,70.010061"
       inkscape:connector-curvature="0" />
    <path
       id="path1968"
       style="opacity:1;fill:none;stroke:#000000;stroke-width:0.21100573;stroke-linecap:round;stroke-linejoin:round"
       d="M 78.387897,70.010061 95.092182,83.157476"
       inkscape:connector-curvature="0" />
    <path
       id="path1970"
       style="opacity:1;fill:none;stroke:#000000;stroke-width:0.21100573;stroke-linecap:round;stroke-linejoin:round"
       d="M 95.092182,83.157476 126.49791,79.547777"
       inkscape:connector-curvature="0" />
    <path
       sodipodi:nodetypes="cc"
       id="path1972"
       style="opacity:1;fill:none;stroke:#000000;stroke-width:0.21100573;stroke-linecap:round;stroke-linejoin:round"
       d="m 131.32264,68.142493 -4.82473,11.405284"
       inkscape:connector-curvature="0" />
    <path
       sodipodi:nodetypes="cc"
       id="path1974"
       style="opacity:1;fill:none;stroke:#000000;stroke-width:0.21100573;stroke-linecap:round;stroke-linejoin:round"
       d="M 48.917651,84.57781 78.387897,70.010061"
       inkscape:connector-curvature="0" />
    <path
       sodipodi:nodetypes="cc"
       id="path1976"
       style="opacity:1;fill:none;stroke:#000000;stroke-width:0.21100573;stroke-linecap:round;stroke-linejoin:round"
       d="M 126.49791,79.547777 139.27756,94.81428"
       inkscape:connector-curvature="0" />
    <path
       sodipodi:nodetypes="cc"
       id="path1978"
       style="opacity:1;fill:none;stroke:#000000;stroke-width:0.21100573;stroke-linecap:round;stroke-linejoin:round"
       d="m 95.092182,83.157476 -8.914477,9.876376"
       inkscape:connector-curvature="0" />
    <flowRoot
       xml:space="preserve"
       id="flowRoot6479"
       style="font-style:normal;font-variant:normal;font-weight:normal;font-stretch:normal;font-size:40px;line-height:1.25;font-family:'Yanone Kaffeesatz';-inkscape-font-specification:'Yanone Kaffeesatz';letter-spacing:0px;word-spacing:0px;fill:#000000;fill-opacity:1;stroke:none"
       transform="matrix(0.26458333,0,0,0.26458333,39.959302,51.980681)"><flowRegion
         id="flowRegion6481"><rect
           id="rect6483"
           width="630.33521"
           height="302.03561"
           x="-70.710678"
           y="161.76292" /></flowRegion><flowPara
         id="flowPara6485"></flowPara></flowRoot>  </g>
  <g
     inkscape:groupmode="layer"
     id="layer2"
     inkscape:label="Layer 2"
     style="display:inline">
    <path
       transform="translate(-39.959301,-51.980682)"
       style="display:inline;fill:#d3bc5f;stroke-width:0.21348365;stroke-miterlimit:4;stroke-dasharray:none"
       d="m 48.201057,131.1166 c -2.198844,-2.46009 -4.263374,-6.09999 -6.535332,-11.5222 -1.576484,-3.76241 -1.593365,-4.6348 -0.119827,-6.19247 2.179799,-2.30424 9.248816,-5.15102 18.082938,-7.28221 1.221307,-0.29463 3.085026,-0.83392 4.141599,-1.19841 2.685777,-0.92652 7.283179,-2.20826 10.188445,-2.84049 2.725741,-0.59317 7.36661,-1.38204 7.543645,-1.2823 0.175112,0.0987 -3.342373,17.28581 -3.559887,17.39433 -5.042675,2.51578 -28.12415,13.87193 -28.366034,13.95616 -0.234016,0.0815 -0.677339,-0.25125 -1.375547,-1.03241 z"
       id="path914"
       inkscape:connector-curvature="0" />
    <path
       transform="translate(-39.959301,-51.980682)"
       style="display:inline;fill:#deaa87;stroke-width:0.21348365;stroke-miterlimit:4;stroke-dasharray:none"
       d="m 85.226944,140.3664 c -0.406989,-0.36851 -0.957366,-1.0997 -1.223066,-1.62486 -0.334075,-0.66032 -0.780632,-1.11295 -1.447724,-1.46743 -2.98055,-1.5838 -10.816165,-2.50873 -22.969379,-2.71136 -3.128609,-0.0521 -6.093418,-0.16405 -6.588461,-0.24864 -0.911618,-0.15577 -3.330726,-1.47831 -3.165344,-1.73052 0.151058,-0.23035 28.134706,-14.00618 28.451581,-14.00618 0.327064,0 16.34651,12.54323 16.346582,12.79938 3.2e-5,0.088 -1.949409,2.29741 -4.33208,4.90981 l -4.332135,4.74983 z"
       id="path916"
       inkscape:connector-curvature="0" />
    <path
       transform="translate(-39.959301,-51.980682)"
       style="display:inline;fill:#e9afaf;stroke-width:0.21348365;stroke-miterlimit:4;stroke-dasharray:none"
       d="m 94.598551,130.62738 c -0.39195,-0.29179 -4.13563,-3.22669 -8.31929,-6.522 l -7.606656,-5.99147 1.7455,-8.64285 c 0.960026,-4.75357 1.876035,-8.7164 2.035576,-8.80629 0.169963,-0.0958 1.960829,-0.16406 4.325067,-0.16495 3.322299,-0.001 4.461327,0.0633 6.448695,0.36545 3.069263,0.46666 7.522577,1.69556 10.080727,2.78182 1.09327,0.46423 5.6296,2.86152 10.08074,5.32731 8.69377,4.81608 9.46119,5.14931 14.83169,6.44021 1.29148,0.31044 2.45896,0.62113 2.59442,0.69043 0.23558,0.12054 -4.2347,11.14878 -4.61553,11.38659 -0.10093,0.0631 -6.82623,0.87643 -14.94502,1.80751 -8.11879,0.93108 -15.027355,1.7302 -15.352363,1.77582 -0.433029,0.0608 -0.781341,-0.0588 -1.303556,-0.44758 z"
       id="path918"
       inkscape:connector-curvature="0" />
    <path
       transform="translate(-39.959301,-51.980682)"
       style="display:inline;fill:#ffe680;stroke-width:0.21348365;stroke-miterlimit:4;stroke-dasharray:none"
       d="m 139.13267,142.38461 c -0.22599,-0.24659 -3.09449,-3.65575 -6.37447,-7.57591 l -5.96358,-7.12757 2.39446,-5.66436 c 1.31695,-3.1154 2.43763,-5.6887 2.4904,-5.71843 0.0528,-0.0297 1.54953,0.1941 3.32613,0.49741 1.77659,0.30331 6.42476,1.02165 10.32927,1.5963 11.47818,1.68933 15.26497,2.54095 17.88975,4.02329 1.19573,0.67528 1.60617,1.07962 2.60046,2.56176 2.3771,3.54343 2.6184,4.79188 1.23645,6.39724 -2.12977,2.47411 -12.25945,6.80333 -25.04827,10.70511 l -2.46972,0.7535 z"
       id="path920"
       inkscape:connector-curvature="0" />
    <path
       transform="translate(-39.959301,-51.980682)"
       style="display:inline;fill:#eeffaa;stroke-width:0.21348365;stroke-miterlimit:4;stroke-dasharray:none"
       d="m 104.728,147.27681 c -5.538975,-0.71706 -12.451587,-2.8098 -16.496201,-4.99408 l -1.826567,-0.98643 4.416102,-4.91829 c 3.482677,-3.87871 4.548796,-4.93562 5.043899,-5.00029 1.626937,-0.21254 29.993927,-3.44077 30.234567,-3.44077 0.24078,0 12.39337,14.30475 12.61708,14.8515 0.11584,0.2831 -4.56697,1.47246 -9.28399,2.35797 -4.46528,0.83827 -7.82726,1.23224 -14.19822,1.6638 -2.65506,0.17986 -5.33853,0.39701 -5.96325,0.48258 -1.3722,0.18794 -3.01278,0.18217 -4.54342,-0.016 z"
       id="path922"
       inkscape:connector-curvature="0" />
    <path
       transform="translate(-39.959301,-51.980682)"
       inkscape:connector-curvature="0"
       id="path1980"
       d="m 48.201057,82.962229 c -2.198844,-2.460078 -4.263374,-6.099957 -6.535332,-11.522137 -1.576484,-3.762386 -1.593365,-4.634773 -0.119827,-6.192434 2.179799,-2.304225 9.248816,-5.15099 18.082938,-7.282168 1.221307,-0.29463 3.085026,-0.833914 4.141599,-1.198404 2.685777,-0.926514 7.283179,-2.208248 10.188445,-2.840472 2.725741,-0.593167 7.36661,-1.382034 7.543645,-1.282294 0.175112,0.0987 -3.342373,17.285711 -3.559887,17.394231 -5.042675,2.515765 -28.12415,13.871852 -28.366034,13.956082 -0.234016,0.0815 -0.677339,-0.25125 -1.375547,-1.032404 z"
       style="display:inline;opacity:1;fill:#d3bc5f;stroke-width:0.21348365;stroke-miterlimit:4;stroke-dasharray:none" />
    <path
       transform="translate(-39.959301,-51.980682)"
       inkscape:connector-curvature="0"
       id="path1982"
       d="M 85.226944,92.211975 C 84.819955,91.843468 84.269578,91.112281 84.003878,90.587124 83.669803,89.92681 83.223246,89.47418 82.556154,89.119703 79.575604,87.535912 71.739989,86.610988 59.586775,86.408358 c -3.128609,-0.0521 -6.093418,-0.16405 -6.588461,-0.248637 -0.911618,-0.15577 -3.330726,-1.478304 -3.165344,-1.730511 0.151058,-0.23035 28.134706,-14.006102 28.451581,-14.006102 0.327064,0 16.34651,12.543161 16.346582,12.799308 3.2e-5,0.088 -1.949409,2.297398 -4.33208,4.909783 l -4.332135,4.749803 z"
       style="display:inline;opacity:1;fill:#deaa87;stroke-width:0.21348365;stroke-miterlimit:4;stroke-dasharray:none" />
    <path
       transform="translate(-39.959301,-51.980682)"
       inkscape:connector-curvature="0"
       id="path1984"
       d="m 94.598551,82.473012 c -0.39195,-0.29179 -4.13563,-3.226672 -8.31929,-6.521964 l -7.606656,-5.991437 1.7455,-8.642799 c 0.960026,-4.753543 1.876035,-8.716352 2.035576,-8.806242 0.169963,-0.0958 1.960829,-0.164057 4.325067,-0.164947 3.322299,-0.001 4.461327,0.0633 6.448695,0.365447 3.069263,0.466657 7.522577,1.695551 10.080727,2.781805 1.09327,0.464227 5.6296,2.861502 10.08074,5.32728 8.69377,4.81605 9.46119,5.14928 14.83169,6.440171 1.29148,0.31044 2.45896,0.621127 2.59442,0.690427 0.23558,0.12054 -4.2347,11.148717 -4.61553,11.386527 -0.10093,0.0631 -6.82623,0.876424 -14.94502,1.807498 -8.11879,0.931074 -15.027355,1.730191 -15.352363,1.775811 -0.433029,0.0608 -0.781341,-0.0588 -1.303556,-0.447577 z"
       style="display:inline;opacity:1;fill:#e9afaf;stroke-width:0.21348365;stroke-miterlimit:4;stroke-dasharray:none" />
    <path
       transform="translate(-39.959301,-51.980682)"
       inkscape:connector-curvature="0"
       id="path1986"
       d="m 139.13267,94.230173 c -0.22599,-0.246587 -3.09449,-3.655729 -6.37447,-7.575865 l -5.96358,-7.127531 2.39446,-5.664327 c 1.31695,-3.115382 2.43763,-5.688667 2.4904,-5.718397 0.0528,-0.0297 1.54953,0.194097 3.32613,0.497407 1.77659,0.303307 6.42476,1.021644 10.32927,1.596291 11.47818,1.689321 15.26497,2.540935 17.88975,4.023266 1.19573,0.675277 1.60617,1.079614 2.60046,2.561745 2.3771,3.543412 2.6184,4.791853 1.23645,6.397204 -2.12977,2.474098 -12.25945,6.803291 -25.04827,10.70505 l -2.46972,0.753497 z"
       style="display:inline;opacity:1;fill:#ffe680;stroke-width:0.21348365;stroke-miterlimit:4;stroke-dasharray:none" />
    <path
       transform="translate(-39.959301,-51.980682)"
       inkscape:connector-curvature="0"
       id="path1988"
       d="M 104.728,99.122346 C 99.189025,98.405292 92.276413,96.312561 88.231799,94.128296 l -1.826567,-0.986427 4.416102,-4.91826 c 3.482677,-3.878689 4.548796,-4.935593 5.043899,-5.000263 1.626937,-0.212537 29.993927,-3.440749 30.234567,-3.440749 0.24078,0 12.39337,14.304669 12.61708,14.851416 0.11584,0.283097 -4.56697,1.472451 -9.28399,2.357955 -4.46528,0.838267 -7.82726,1.232234 -14.19822,1.663791 -2.65506,0.17986 -5.33853,0.397007 -5.96325,0.482577 -1.3722,0.18794 -3.01278,0.18217 -4.54342,-0.016 z"
       style="display:inline;opacity:1;fill:#eeffaa;stroke-width:0.21348365;stroke-miterlimit:4;stroke-dasharray:none" />
  </g>
  <g
     inkscape:groupmode="layer"
     id="layer3"
     inkscape:label="letters">
    <text
       transform="translate(-39.959301,-51.980682)"
       xml:space="preserve"
       style="font-style:normal;font-variant:normal;font-weight:normal;font-stretch:normal;font-size:10.58333302px;line-height:1.25;font-family:'Yanone Kaffeesatz';-inkscape-font-specification:'Yanone Kaffeesatz';letter-spacing:0px;word-spacing:0px;display:inline;fill:#000000;fill-opacity:1;stroke:none;stroke-width:0.26458332"
       x="50.781208"
       y="118.99848"
       id="text1757"><tspan
         sodipodi:role="line"
         id="tspan1755"
         x="50.781208"
         y="118.99848"
         style="stroke-width:0.26458332">$S_1$</tspan></text>
    <text
       transform="translate(-39.959301,-51.980682)"
       xml:space="preserve"
       style="font-style:normal;font-variant:normal;font-weight:normal;font-stretch:normal;font-size:10.58333302px;line-height:1.25;font-family:'Yanone Kaffeesatz';-inkscape-font-specification:'Yanone Kaffeesatz';letter-spacing:0px;word-spacing:0px;display:inline;fill:#000000;fill-opacity:1;stroke:none;stroke-width:0.26458332"
       x="68.071625"
       y="132.40912"
       id="text1757-3"><tspan
         sodipodi:role="line"
         id="tspan1755-6"
         x="68.071625"
         y="132.40912"
         style="stroke-width:0.26458332">$S_2$</tspan></text>
    <text
       transform="translate(-39.959301,-51.980682)"
       xml:space="preserve"
       style="font-style:normal;font-variant:normal;font-weight:normal;font-stretch:normal;font-size:10.58333302px;line-height:1.25;font-family:'Yanone Kaffeesatz';-inkscape-font-specification:'Yanone Kaffeesatz';letter-spacing:0px;word-spacing:0px;display:inline;fill:#000000;fill-opacity:1;stroke:none;stroke-width:0.26458332"
       x="96.402199"
       y="119.3129"
       id="text1757-3-5"><tspan
         sodipodi:role="line"
         id="tspan1755-6-3"
         x="96.402199"
         y="119.3129"
         style="stroke-width:0.26458332">$S_3$</tspan></text>
    <text
       transform="translate(-39.959301,-51.980682)"
       xml:space="preserve"
       style="font-style:normal;font-variant:normal;font-weight:normal;font-stretch:normal;font-size:10.58333302px;line-height:1.25;font-family:'Yanone Kaffeesatz';-inkscape-font-specification:'Yanone Kaffeesatz';letter-spacing:0px;word-spacing:0px;display:inline;fill:#000000;fill-opacity:1;stroke:none;stroke-width:0.26458332"
       x="102.28213"
       y="141.49626"
       id="text1757-3-56"><tspan
         sodipodi:role="line"
         id="tspan1755-6-2"
         x="102.28213"
         y="141.49626"
         style="stroke-width:0.26458332">$S_4$</tspan></text>
    <text
       transform="translate(-39.959301,-51.980682)"
       xml:space="preserve"
       style="font-style:normal;font-variant:normal;font-weight:normal;font-stretch:normal;font-size:10.58333302px;line-height:1.25;font-family:'Yanone Kaffeesatz';-inkscape-font-specification:'Yanone Kaffeesatz';letter-spacing:0px;word-spacing:0px;display:inline;fill:#000000;fill-opacity:1;stroke:none;stroke-width:0.26458332"
       x="139.96713"
       y="130.27097"
       id="text1757-3-9"><tspan
         sodipodi:role="line"
         id="tspan1755-6-1"
         x="139.96713"
         y="130.27097"
         style="stroke-width:0.26458332">$S_5$</tspan></text>
    <text
       transform="translate(-39.959301,-51.980682)"
       id="text1992"
       y="70.844337"
       x="50.781208"
       style="font-style:normal;font-variant:normal;font-weight:normal;font-stretch:normal;font-size:10.58333302px;line-height:1.25;font-family:'Yanone Kaffeesatz';-inkscape-font-specification:'Yanone Kaffeesatz';letter-spacing:0px;word-spacing:0px;display:inline;opacity:1;fill:#000000;fill-opacity:1;stroke:none;stroke-width:0.26458332"
       xml:space="preserve"><tspan
         style="stroke-width:0.26458332"
         y="70.844337"
         x="50.781208"
         id="tspan1990"
         sodipodi:role="line">$P_1$</tspan></text>
    <text
       transform="translate(-39.959301,-51.980682)"
       id="text1996"
       y="84.255005"
       x="68.071625"
       style="font-style:normal;font-variant:normal;font-weight:normal;font-stretch:normal;font-size:10.58333302px;line-height:1.25;font-family:'Yanone Kaffeesatz';-inkscape-font-specification:'Yanone Kaffeesatz';letter-spacing:0px;word-spacing:0px;display:inline;opacity:1;fill:#000000;fill-opacity:1;stroke:none;stroke-width:0.26458332"
       xml:space="preserve"><tspan
         style="stroke-width:0.26458332"
         y="84.255005"
         x="68.071625"
         id="tspan1994"
         sodipodi:role="line">$P_2$</tspan></text>
    <text
       transform="translate(-39.959301,-51.980682)"
       id="text2000"
       y="71.158745"
       x="96.402199"
       style="font-style:normal;font-variant:normal;font-weight:normal;font-stretch:normal;font-size:10.58333302px;line-height:1.25;font-family:'Yanone Kaffeesatz';-inkscape-font-specification:'Yanone Kaffeesatz';letter-spacing:0px;word-spacing:0px;display:inline;opacity:1;fill:#000000;fill-opacity:1;stroke:none;stroke-width:0.26458332"
       xml:space="preserve"><tspan
         style="stroke-width:0.26458332"
         y="71.158745"
         x="96.402199"
         id="tspan1998"
         sodipodi:role="line">$P_3$</tspan></text>
    <text
       transform="translate(-39.959301,-51.980682)"
       id="text2004"
       y="93.34227"
       x="102.28213"
       style="font-style:normal;font-variant:normal;font-weight:normal;font-stretch:normal;font-size:10.58333302px;line-height:1.25;font-family:'Yanone Kaffeesatz';-inkscape-font-specification:'Yanone Kaffeesatz';letter-spacing:0px;word-spacing:0px;display:inline;opacity:1;fill:#000000;fill-opacity:1;stroke:none;stroke-width:0.26458332"
       xml:space="preserve"><tspan
         style="stroke-width:0.26458332"
         y="93.34227"
         x="102.28213"
         id="tspan2002"
         sodipodi:role="line">$P_4$</tspan></text>
    <text
       transform="translate(-39.959301,-51.980682)"
       id="text2008"
       y="82.116859"
       x="139.96713"
       style="font-style:normal;font-variant:normal;font-weight:normal;font-stretch:normal;font-size:10.58333302px;line-height:1.25;font-family:'Yanone Kaffeesatz';-inkscape-font-specification:'Yanone Kaffeesatz';letter-spacing:0px;word-spacing:0px;display:inline;opacity:1;fill:#000000;fill-opacity:1;stroke:none;stroke-width:0.26458332"
       xml:space="preserve"><tspan
         style="stroke-width:0.26458332"
         y="82.116859"
         x="139.96713"
         id="tspan2006"
         sodipodi:role="line">$P_5$</tspan></text>
  </g>
</svg>
