<?xml version="1.0" standalone="no"?>
<!DOCTYPE svg PUBLIC "-//W3C//DTD SVG 20010904//EN"
 "http://www.w3.org/TR/2001/REC-SVG-20010904/DTD/svg10.dtd">
<svg version="1.0" xmlns="http://www.w3.org/2000/svg"
 width="1280.000000pt" height="847.000000pt" viewBox="0 0 1280.000000 847.000000"
 preserveAspectRatio="xMidYMid meet">
<metadata>
Created by potrace 1.15, written by Peter Selinger 2001-2017
</metadata>
<g transform="translate(0.000000,847.000000) scale(0.100000,-0.100000)"
fill="#000000" stroke="none">
<path d="M2793 7980 c-431 -45 -748 -216 -902 -485 -57 -99 -104 -210 -136
-320 -22 -78 -26 -108 -26 -223 1 -137 20 -261 48 -317 9 -16 34 -50 57 -75
23 -25 69 -85 103 -135 247 -361 568 -659 972 -903 58 -35 232 -126 386 -202
352 -174 393 -197 412 -233 19 -38 93 -71 206 -93 76 -15 96 -16 150 -4 37 7
164 15 314 17 l252 5 270 -212 c149 -116 271 -215 271 -219 0 -4 -37 -11 -82
-15 -168 -13 -322 -70 -487 -180 l-107 -72 -144 47 c-158 51 -360 98 -540 125
-165 26 -508 26 -645 0 -221 -41 -381 -114 -496 -226 -76 -75 -123 -155 -179
-303 -37 -97 -40 -114 -40 -204 0 -169 32 -270 100 -319 16 -11 64 -64 107
-119 296 -373 601 -594 1238 -896 204 -96 231 -113 255 -161 16 -29 31 -41 77
-58 93 -35 173 -46 241 -32 84 17 106 16 96 -5 -4 -10 -9 -144 -12 -299 l-4
-281 28 -20 c16 -11 34 -23 41 -27 7 -4 23 8 39 29 25 33 27 44 40 227 12 177
30 341 40 378 3 13 39 15 246 15 189 1 267 5 350 19 l107 18 73 -60 c225 -185
503 -237 779 -145 194 64 366 216 454 401 26 55 32 63 55 60 15 -2 29 -12 35
-26 12 -27 49 -39 70 -22 7 6 22 35 32 63 20 58 24 234 10 410 l-7 97 85 0
c82 0 121 -10 137 -34 4 -6 8 -33 8 -61 1 -29 11 -71 24 -100 l22 -50 -24 -54
c-28 -61 -43 -206 -31 -296 11 -82 87 -210 263 -439 5 -7 -2 -27 -18 -50 -31
-46 -33 -89 -6 -134 18 -29 39 -43 103 -65 14 -5 15 -10 7 -24 -6 -10 -33
-110 -61 -222 -45 -182 -74 -272 -203 -638 l-37 -102 23 -36 c26 -40 27 -40
71 -22 29 13 39 30 106 188 134 312 221 577 251 759 7 41 14 81 16 88 2 7 39
-14 96 -58 141 -106 317 -206 622 -355 252 -123 282 -140 335 -194 53 -53 66
-60 138 -80 89 -24 158 -27 200 -9 20 9 149 12 473 13 416 1 453 2 565 23 287
53 475 137 657 294 78 67 98 102 122 208 9 41 22 95 27 119 15 67 12 222 -6
293 -9 35 -38 109 -65 164 -267 552 -1146 1046 -2080 1169 -346 46 -762 19
-1004 -65 -33 -11 -60 -19 -61 -18 -6 7 36 225 60 313 27 97 29 126 23 293 -1
15 4 56 10 92 7 42 8 87 3 125 -6 42 -5 61 3 65 6 2 103 34 215 70 l204 65
336 -167 c269 -134 347 -177 394 -219 63 -56 116 -78 248 -100 61 -10 82 -10
110 1 24 9 144 15 424 21 215 4 433 12 485 18 472 55 791 191 1051 450 128
128 150 168 190 344 47 210 53 308 28 467 -25 159 -126 381 -246 545 -86 116
-321 352 -443 442 -311 232 -712 431 -1105 547 -707 209 -1430 188 -1919 -55
-176 -88 -330 -214 -427 -352 -48 -68 -174 -334 -188 -397 -5 -25 -12 -99 -16
-165 -9 -155 6 -219 85 -373 145 -286 353 -541 589 -727 34 -26 61 -51 61 -55
0 -7 -151 -70 -166 -69 -5 0 -26 35 -47 77 -143 294 -373 512 -678 644 -194
84 -457 127 -649 108 -189 -20 -402 -84 -529 -158 -36 -22 -86 -51 -111 -65
-94 -54 -220 -174 -266 -253 -11 -18 -12 -18 -40 1 -16 10 -81 64 -144 119
-63 56 -139 121 -168 145 -29 24 -51 45 -49 47 2 2 41 15 88 28 371 109 611
333 693 648 34 133 41 241 22 366 -63 413 -369 840 -871 1213 -442 328 -1018
567 -1570 650 -148 23 -463 33 -592 19z m378 -131 c24 -6 54 -28 92 -68 l57
-60 0 -133 c0 -182 17 -275 150 -838 54 -230 71 -323 55 -310 -6 5 -14 8 -16
5 -17 -16 -259 76 -399 152 -115 63 -241 104 -335 109 -62 4 -84 1 -99 -11
-29 -22 -27 -78 4 -105 12 -11 20 -20 17 -20 -19 0 59 -60 85 -65 16 -4 27 -9
25 -11 -5 -5 -467 114 -562 145 -33 10 -51 19 -41 20 11 1 16 4 13 7 -3 4 -1
16 5 27 13 25 17 197 5 215 -5 6 -6 12 -1 12 5 0 -6 9 -24 20 -18 11 -34 20
-37 20 -13 0 -36 -37 -46 -73 -16 -62 -19 -77 -26 -136 -5 -46 -3 -56 13 -69
19 -14 19 -14 -1 -9 -11 3 -55 13 -99 23 -90 19 -86 14 -131 170 -70 242 -47
470 63 615 166 221 495 358 922 382 81 5 270 -4 311 -14z m884 -204 c189 -70
478 -217 675 -344 485 -311 877 -756 981 -1114 25 -85 21 -123 -22 -214 -44
-91 -136 -87 -734 30 -242 47 -539 104 -660 127 -314 58 -395 81 -395 112 0 5
5 6 12 2 7 -4 8 -3 4 4 -4 6 3 33 14 61 17 38 31 54 68 74 63 34 158 55 300
66 109 8 124 12 215 55 69 32 122 66 178 115 84 73 141 105 199 114 77 11 100
28 120 90 12 39 12 39 -31 84 -95 97 -323 260 -443 316 -66 31 -68 31 -144
-37 -20 -18 -59 -48 -87 -68 -68 -49 -159 -145 -236 -248 -64 -87 -205 -231
-263 -271 -18 -12 -41 -36 -51 -53 l-18 -31 -8 35 c-5 19 -15 159 -24 310 -9
151 -22 349 -31 440 -16 180 -11 289 15 321 9 10 48 30 86 44 91 32 150 28
280 -20z m4785 -1055 c74 -6 149 -15 166 -21 17 -5 59 -38 93 -74 71 -73 70
-72 44 -241 -14 -89 -17 -181 -18 -504 0 -344 -2 -395 -15 -392 -8 2 -44 27
-80 56 -36 29 -83 63 -105 76 -65 39 -376 311 -570 498 -174 168 -253 233
-343 282 l-43 24 -55 -19 c-109 -37 -318 -185 -357 -253 l-17 -30 77 -45 c43
-25 121 -59 173 -77 147 -51 239 -88 310 -127 36 -20 81 -45 100 -56 135 -74
303 -181 387 -246 105 -83 193 -139 341 -216 167 -88 190 -126 92 -157 -62
-20 -44 -24 -680 146 -278 74 -586 155 -685 181 -224 57 -354 101 -391 130
l-29 23 0 159 c1 144 3 164 26 223 102 266 422 497 820 593 174 43 355 66 589
75 19 1 96 -3 170 -8z m-5993 -106 c-3 -3 -12 -4 -19 -1 -8 3 -5 6 6 6 11 1
17 -2 13 -5z m58 -14 c13 -5 14 -9 5 -9 -8 0 -24 4 -35 9 -13 5 -14 9 -5 9 8
0 24 -4 35 -9z m-172 -150 c564 -113 727 -151 727 -166 0 -2 -21 -50 -46 -105
-52 -116 -68 -187 -62 -276 4 -68 25 -107 70 -132 35 -20 92 -3 157 49 l49 39
6 -37 c11 -76 28 -363 22 -369 -8 -8 -219 75 -371 147 -231 109 -505 279 -705
439 -123 98 -328 303 -411 411 -75 97 -109 147 -93 137 6 -3 302 -65 657 -137z
m224 134 c-3 -3 -12 -4 -19 -1 -8 3 -5 6 6 6 11 1 17 -2 13 -5z m6945 -88
c304 -110 642 -301 893 -503 132 -106 314 -295 397 -411 140 -196 226 -406
235 -574 6 -93 5 -100 -24 -160 -48 -100 -54 -103 -197 -102 -110 0 -158 7
-531 82 -225 45 -531 104 -680 132 -430 81 -467 89 -515 113 -30 15 -46 29
-48 45 -4 26 -12 26 121 2 60 -11 132 -20 160 -21 47 -1 187 -32 209 -45 5 -3
101 -9 213 -14 157 -6 230 -5 317 7 62 7 219 17 348 22 242 7 260 11 308 54
32 29 28 59 -24 200 -58 159 -82 189 -184 223 -222 74 -320 82 -519 39 -68
-14 -172 -32 -230 -40 -114 -15 -248 -58 -481 -155 -142 -59 -244 -76 -269
-46 -7 9 -20 16 -27 16 -20 0 -18 11 26 241 50 261 85 470 105 629 30 233 32
236 137 276 90 33 149 31 260 -10z m-5654 -385 c71 -17 257 -64 413 -105 356
-94 580 -150 688 -171 103 -21 247 -23 324 -5 81 19 85 9 41 -81 -29 -57 -58
-95 -128 -164 -50 -49 -117 -105 -148 -123 -134 -79 -356 -155 -488 -168 l-55
-5 -90 88 c-96 94 -199 207 -310 338 -37 44 -118 133 -181 198 -63 65 -114
124 -114 131 0 8 -7 19 -15 26 -8 6 -13 17 -12 23 1 6 -14 19 -33 28 -19 10
-32 18 -29 19 4 0 65 -13 137 -29z m-305 -556 c5 -40 4 -44 -3 -20 -14 44 -20
89 -11 79 5 -5 11 -31 14 -59z m127 -115 c41 -21 69 -29 108 -30 73 0 136 -37
155 -92 5 -15 0 -18 -27 -18 -44 0 -291 47 -315 59 -22 12 -35 79 -19 98 16
20 37 16 98 -17z m3664 -150 c133 -27 452 -93 710 -145 259 -53 476 -101 483
-107 7 -6 13 -14 13 -19 0 -13 -114 -63 -295 -128 -93 -34 -272 -103 -398
-153 l-227 -91 -38 26 c-154 108 -376 318 -477 452 -52 69 -165 247 -165 259
0 2 35 -7 77 -20 42 -13 185 -46 317 -74z m1941 -420 c676 -174 1315 -331
1390 -341 49 -6 121 -9 159 -6 l69 6 -24 -27 c-114 -131 -284 -245 -474 -321
-225 -90 -449 -130 -767 -138 -269 -7 -554 16 -573 46 -12 21 -12 74 1 193 17
143 14 225 -10 383 -21 137 -20 181 5 221 24 39 2 41 224 -16z m-6065 -355
c117 -7 164 -27 215 -90 l39 -47 2 -137 c2 -117 7 -157 39 -291 20 -85 44
-193 55 -240 10 -47 19 -89 21 -95 4 -13 -23 -55 -36 -55 -5 0 -11 -20 -11
-45 -1 -37 -16 -84 -41 -127 -2 -4 17 -21 43 -37 42 -26 45 -29 26 -35 -25 -8
-36 -6 -757 198 -420 118 -554 160 -566 175 -28 34 -79 189 -91 273 -27 191
43 318 234 426 69 39 201 85 308 107 82 17 319 34 390 29 19 -2 78 -6 130 -9z
m5060 -37 c0 -38 -29 -107 -53 -126 -11 -9 -27 -11 -49 -7 -36 8 -172 74 -166
80 6 7 242 85 256 85 7 0 12 -13 12 -32z m-3555 -14 l50 -6 -4 -84 c-2 -67 2
-101 23 -174 14 -50 26 -95 26 -100 0 -5 -42 16 -92 47 -101 60 -275 152 -377
197 -60 27 -63 30 -45 43 90 68 251 97 419 77z m-737 -123 c10 -6 -3 -29 -51
-94 -36 -47 -85 -118 -108 -158 -43 -72 -44 -73 -50 -44 -11 49 -10 167 1 207
12 43 29 54 115 79 71 21 76 21 93 10z m471 -191 c128 -64 251 -136 378 -222
80 -54 113 -84 160 -145 80 -106 81 -107 51 -100 -17 5 -29 1 -42 -14 -12 -14
-25 -20 -42 -16 -17 3 -28 -1 -34 -13 -5 -10 -31 -23 -57 -29 -26 -6 -113 -29
-193 -51 -80 -22 -219 -51 -310 -65 -145 -22 -175 -30 -248 -66 -87 -43 -134
-47 -162 -14 -17 20 -114 75 -133 75 -12 0 -16 19 -22 90 l-7 90 66 121 c51
93 220 365 242 388 2 2 17 -8 34 -23 26 -21 42 -26 85 -26 49 0 58 4 87 34 18
19 36 35 41 35 4 1 52 -21 106 -49z m-1897 -725 c84 -20 335 -76 557 -126 223
-50 413 -95 423 -100 12 -6 17 -17 13 -28 -3 -9 -12 -39 -19 -67 -24 -82 -57
-178 -71 -204 -19 -39 -34 -91 -37 -133 -3 -46 1 -47 -173 38 -216 106 -444
259 -629 422 -90 80 -237 233 -223 233 3 0 75 -16 159 -35z m5713 -115 c95
-14 116 -24 177 -87 l47 -48 -9 -115 c-13 -166 -16 -441 -7 -620 10 -207 16
-200 -136 -176 -61 10 -123 25 -137 34 -14 9 -158 119 -320 246 -162 126 -374
290 -470 364 -96 74 -179 138 -183 142 -5 4 1 43 13 87 l22 80 82 26 c133 42
255 64 456 81 78 7 382 -3 465 -14z m-1180 -44 c-10 -50 -29 -64 -63 -44 -15
9 -28 20 -29 25 -3 9 88 65 95 58 2 -1 0 -19 -3 -39z m-2517 -98 c2 -4 8 -6
13 -2 15 9 10 -4 -16 -46 -14 -22 -29 -40 -34 -40 -5 0 -51 10 -102 21 -88 21
-91 22 -67 35 14 7 39 16 55 19 17 2 45 11 64 19 33 14 81 11 87 -6z m4543
-59 c239 -78 578 -258 807 -429 118 -89 291 -257 368 -360 109 -145 183 -320
184 -434 0 -45 -53 -151 -84 -169 -46 -26 -190 -12 -436 42 -433 95 -463 102
-550 143 -78 37 -125 59 -235 108 -61 27 -103 38 -185 51 -83 12 -117 27 -172
73 -43 35 -50 72 -18 101 11 10 29 36 40 59 11 22 59 84 106 136 152 167 214
267 214 346 0 50 -75 127 -207 211 -57 36 -103 70 -103 74 0 13 45 40 92 54
62 19 106 18 179 -6z m-2652 -59 c36 -81 37 -90 14 -176 -13 -48 -22 -64 -35
-64 -16 0 -18 10 -18 93 0 81 -8 140 -26 200 -4 12 0 17 14 17 14 0 27 -18 51
-70z m-2172 -40 c81 -22 148 -42 150 -44 3 -2 -17 -35 -44 -73 -90 -127 -116
-172 -108 -191 13 -30 12 -92 -2 -104 -10 -8 -18 -6 -33 7 -18 17 -19 16 -25
-11 -4 -16 -12 -49 -19 -74 -14 -52 -15 -52 -133 -18 l-73 21 0 101 c0 56 -7
146 -15 200 -24 161 -25 159 43 188 69 31 83 36 100 37 8 1 79 -17 159 -39z
m426 -115 c51 -15 99 -28 108 -31 12 -3 18 -22 23 -70 8 -82 46 -201 90 -282
19 -34 31 -64 27 -67 -4 -2 -68 -8 -142 -13 -130 -9 -272 -7 -393 7 l-58 6 -2
45 -2 45 54 0 c48 0 57 3 83 33 36 40 39 98 8 148 -13 21 -17 39 -12 48 10 18
117 155 121 156 2 0 44 -11 95 -25z m2176 -135 l42 -70 -19 -68 c-23 -82 -42
-88 -58 -17 -11 46 -19 225 -10 225 2 0 22 -32 45 -70z m738 -372 c10 -11 -4
-12 -90 -6 -56 4 -115 12 -132 17 -16 5 -54 12 -83 16 -54 7 -82 25 -82 51 0
9 -22 84 -50 168 -27 84 -50 155 -50 159 0 7 468 -382 487 -405z m309 -292
c74 -16 69 -13 174 -101 93 -79 170 -158 170 -175 0 -7 7 -18 15 -26 11 -12
15 -39 15 -108 0 -103 11 -149 46 -186 25 -27 24 -70 -2 -70 -24 0 -276 96
-405 154 -225 102 -507 272 -612 369 -45 42 -48 48 -45 88 l3 44 65 11 c93 17
500 17 576 0z m899 -216 c39 -11 74 -20 79 -20 5 0 7 -3 3 -6 -3 -3 12 -20 33
-38 22 -17 92 -78 157 -136 65 -58 161 -140 214 -181 57 -46 108 -96 127 -125
29 -46 72 -78 117 -87 11 -2 -25 -7 -80 -12 -206 -16 -555 11 -777 61 l-68 16
-2 101 c-5 243 -2 289 23 362 19 55 29 71 49 76 39 11 50 10 125 -11z m1209
-314 c60 -14 140 -26 178 -28 37 -1 68 -5 68 -9 0 -12 -135 -98 -202 -128 -72
-33 -191 -71 -220 -71 -26 0 -14 16 27 36 26 12 38 26 46 54 11 35 9 40 -25
84 -20 26 -36 59 -36 73 0 29 -16 30 164 -11z m-257 -252 c-3 -3 -12 -4 -19
-1 -8 3 -5 6 6 6 11 1 17 -2 13 -5z"/>
<path d="M9894 4378 c3 -10 9 -26 12 -35 5 -15 4 -15 -5 -3 -5 8 -14 11 -18 6
-4 -4 1 -14 11 -22 11 -8 16 -14 11 -14 -4 0 27 -24 71 -53 73 -50 80 -52 88
-35 7 14 6 22 -5 29 -12 7 -12 9 0 9 9 0 6 7 -9 20 -13 11 -26 17 -29 13 -10
-13 -42 -12 -38 1 3 6 11 10 18 8 8 -2 10 0 6 5 -5 4 -14 8 -20 8 -7 1 -11 7
-9 15 6 25 -19 58 -44 58 -13 0 -24 -6 -24 -12 0 -6 -5 -4 -11 4 -9 13 -10 12
-5 -2z"/>
<path d="M10114 4199 c-3 -6 1 -18 10 -27 10 -11 16 -12 16 -4 0 7 -5 12 -11
12 -8 0 -8 5 1 15 8 9 9 15 2 15 -6 0 -14 -5 -18 -11z"/>
<path d="M10201 4133 c4 -22 -2 -34 -13 -27 -9 5 -9 3 1 -9 7 -9 17 -14 22
-11 12 7 11 41 -1 49 -6 4 -10 3 -9 -2z"/>
<path d="M10232 4083 c2 -9 10 -18 18 -20 12 -4 13 -3 1 5 -7 5 -10 15 -7 21
4 6 2 11 -4 11 -6 0 -10 -8 -8 -17z"/>
<path d="M10285 4030 c22 -24 57 -27 48 -4 -4 11 -8 12 -13 4 -5 -8 -11 -7
-23 4 -23 23 -33 20 -12 -4z"/>
<path d="M3088 4033 c-24 -6 -23 -19 2 -36 11 -7 57 -47 102 -88 114 -104 199
-168 298 -224 47 -26 112 -67 145 -90 75 -53 125 -72 150 -57 17 9 12 16 -46
74 -109 109 -408 327 -524 383 -78 37 -102 45 -127 38z"/>
</g>
</svg>
