<?xml version="1.0" standalone="no"?>
<!DOCTYPE svg PUBLIC "-//W3C//DTD SVG 20010904//EN"
 "http://www.w3.org/TR/2001/REC-SVG-20010904/DTD/svg10.dtd">
<svg version="1.0" xmlns="http://www.w3.org/2000/svg"
 width="1280.000000pt" height="1280.000000pt" viewBox="0 0 1280.000000 1280.000000"
 preserveAspectRatio="xMidYMid meet">
<metadata>
Created by potrace 1.15, written by Peter Selinger 2001-2017
</metadata>
<g transform="translate(0.000000,1280.000000) scale(0.100000,-0.100000)"
fill="#000000" stroke="none">
<path d="M3663 11840 c-13 -5 -23 -16 -23 -25 0 -8 -4 -15 -8 -15 -16 0 -100
-88 -107 -111 -4 -13 -16 -34 -27 -46 -20 -22 -39 -103 -60 -253 -5 -41 -13
-344 -16 -674 l-7 -599 -25 35 c-26 36 -151 148 -165 148 -5 0 -18 9 -29 19
-26 24 -162 71 -205 71 -18 0 -42 5 -53 11 -25 13 -142 39 -178 39 -14 0 -38
-9 -55 -20 -16 -11 -39 -20 -50 -20 -36 0 -85 -63 -91 -117 -6 -46 10 -377 21
-438 29 -174 34 -570 10 -740 -8 -55 -20 -161 -26 -235 -7 -84 -17 -146 -27
-165 -9 -16 -19 -63 -22 -102 -5 -48 -13 -79 -24 -92 -10 -11 -21 -48 -27 -85
-5 -37 -15 -77 -23 -89 -8 -12 -17 -44 -21 -72 -3 -27 -14 -66 -24 -85 -10
-19 -21 -54 -25 -77 -3 -24 -15 -58 -26 -75 -11 -18 -20 -46 -20 -61 0 -15
-11 -49 -25 -75 -14 -26 -25 -59 -25 -75 0 -15 -7 -41 -15 -58 -9 -16 -20 -52
-25 -81 -6 -28 -17 -59 -26 -69 -8 -9 -18 -43 -21 -75 -3 -37 -13 -67 -24 -80
-10 -11 -22 -42 -25 -70 -4 -27 -15 -66 -25 -86 -11 -21 -19 -54 -19 -75 -1
-21 -10 -63 -21 -93 -11 -30 -24 -85 -29 -122 -5 -36 -16 -80 -24 -97 -9 -17
-20 -77 -26 -138 -5 -60 -16 -126 -24 -148 -23 -61 -23 -637 0 -680 9 -16 20
-72 24 -123 5 -57 15 -102 25 -118 9 -14 19 -48 22 -77 4 -29 17 -72 30 -96
12 -24 23 -56 23 -71 0 -15 8 -38 18 -51 11 -13 22 -37 26 -54 4 -16 16 -39
25 -50 10 -11 21 -33 25 -49 4 -16 16 -41 27 -54 10 -14 19 -32 19 -42 0 -9 9
-25 20 -35 11 -10 20 -23 20 -30 0 -7 10 -23 23 -37 12 -14 30 -38 39 -54 24
-41 40 -64 61 -88 10 -11 40 -48 66 -81 65 -82 215 -231 248 -249 24 -12 61
-43 123 -101 23 -21 90 -65 99 -65 5 0 21 -10 36 -22 16 -12 42 -30 59 -39 17
-10 47 -26 66 -37 82 -45 96 -52 108 -52 7 0 26 -10 42 -21 19 -15 36 -20 53
-15 22 5 25 11 30 87 4 56 10 86 22 99 10 11 21 41 26 67 5 26 18 56 29 68 11
12 20 27 20 33 0 7 7 15 15 18 8 3 19 22 26 41 14 42 152 183 180 183 27 0 59
35 59 65 0 16 -15 41 -41 67 -66 69 -68 86 -3 39 31 -22 61 -41 66 -41 5 0 30
-14 54 -31 60 -41 175 -93 244 -110 84 -21 373 -15 432 8 70 29 216 115 223
131 11 30 7 1350 -5 1372 -13 24 22 22 -404 21 -247 -1 -353 2 -362 10 -20 17
-21 4516 -1 4543 12 17 97 18 1662 17 908 0 1660 0 1673 -1 15 0 26 -9 33 -27
8 -19 11 -303 10 -917 0 -634 3 -893 10 -903 7 -7 31 -13 55 -13 33 0 47 5 56
20 8 13 24 20 44 20 17 0 47 11 67 25 20 13 54 29 76 35 55 15 119 58 136 93
8 17 15 49 15 73 0 39 2 43 34 54 19 6 40 17 46 25 6 7 26 17 43 20 18 4 48
17 67 29 56 34 92 55 130 71 19 9 42 20 50 25 8 6 31 17 50 26 92 40 117 56
172 114 27 28 59 73 73 100 14 27 29 51 35 55 5 3 10 22 10 41 0 19 11 62 25
96 36 89 32 130 -20 182 -18 18 -24 32 -20 46 4 13 -3 37 -19 65 -14 24 -26
52 -26 63 0 11 -9 31 -20 45 -11 14 -20 29 -20 35 0 21 -63 86 -112 115 -140
84 -254 89 -422 21 -33 -13 -63 -24 -68 -24 -4 0 -8 222 -8 494 0 426 -2 495
-15 506 -8 7 -15 22 -15 34 0 12 -6 30 -14 41 -7 11 -17 31 -21 44 -7 22 -54
93 -88 132 -13 15 -76 17 -573 23 -308 3 -617 8 -689 11 -71 3 -384 7 -695 10
-311 3 -628 7 -705 10 -319 11 -1251 15 -1272 5z m2017 -230 c10 -6 34 -10 52
-10 45 0 136 -39 144 -62 3 -10 12 -25 21 -34 23 -22 20 -86 -6 -122 -11 -17
-21 -35 -21 -41 0 -7 -8 -14 -17 -18 -10 -3 -28 -15 -41 -27 -20 -18 -39 -21
-133 -24 -60 -3 -117 -1 -126 3 -10 4 -40 8 -68 9 -27 2 -84 17 -125 34 -83
33 -87 39 -89 130 -1 65 18 105 59 122 17 7 35 21 40 31 6 10 20 19 32 21 43
7 260 -2 278 -12z"/>
<path d="M4472 8888 l3 -1053 1050 0 1050 0 3 1053 2 1052 -1055 0 -1055 0 2
-1052z"/>
<path d="M7875 8875 c-22 -14 -52 -25 -66 -25 -15 0 -37 -8 -50 -18 -41 -31
-174 -92 -201 -92 -14 0 -33 -8 -42 -19 -9 -10 -31 -22 -49 -25 -17 -4 -41
-15 -52 -25 -85 -80 -115 -113 -115 -123 0 -6 -9 -21 -20 -33 -12 -12 -23 -40
-26 -61 -3 -21 -14 -60 -25 -86 -23 -57 -25 -145 -4 -175 8 -12 20 -46 25 -75
11 -56 37 -100 98 -163 59 -61 92 -85 115 -85 11 0 38 -12 58 -26 36 -25 43
-26 152 -22 92 2 119 6 134 20 11 10 35 21 54 24 19 4 54 18 79 30 25 13 53
24 62 24 9 0 29 11 43 24 14 13 42 27 62 31 21 4 49 15 64 26 15 10 32 19 38
19 6 0 27 15 47 34 106 99 141 141 149 183 4 21 12 44 18 52 7 8 13 61 16 126
3 97 0 118 -18 158 -12 25 -21 56 -21 68 0 42 -179 209 -224 209 -13 0 -44 11
-70 25 -67 35 -173 35 -231 0z"/>
<path d="M8030 7753 c-25 -2 -54 -12 -65 -22 -11 -10 -38 -24 -60 -31 -22 -7
-53 -21 -70 -31 -16 -11 -42 -19 -56 -19 -14 0 -40 -11 -59 -25 -19 -14 -44
-25 -56 -25 -11 0 -38 -11 -58 -25 -20 -14 -49 -28 -64 -31 -32 -8 -123 -58
-168 -91 -45 -34 -108 -130 -123 -187 -7 -27 -19 -62 -27 -77 -20 -40 -18
-141 5 -197 11 -26 22 -60 26 -77 3 -16 17 -47 31 -67 13 -21 24 -41 24 -46 0
-15 75 -79 107 -91 17 -7 34 -19 37 -27 3 -9 20 -14 43 -14 21 0 62 -9 91 -20
65 -25 84 -25 157 0 32 11 72 20 90 20 19 0 39 8 50 20 10 11 34 22 54 26 20
3 55 17 78 30 23 13 48 24 56 24 8 0 31 14 52 30 24 19 49 30 70 30 19 0 39 8
50 20 10 11 34 23 53 26 19 4 51 17 70 30 19 13 39 24 44 24 12 0 77 66 104
105 11 17 26 46 32 65 7 18 20 42 29 52 13 15 18 45 21 136 l4 118 -52 106
c-55 111 -76 135 -190 208 -43 27 -54 30 -165 34 -66 2 -140 2 -165 -1z"/>
<path d="M5450 7621 c-19 -10 -49 -22 -66 -25 -18 -4 -40 -16 -50 -27 -9 -10
-23 -19 -29 -19 -19 0 -137 -121 -168 -172 -15 -25 -30 -61 -33 -79 -4 -19
-14 -45 -23 -59 -15 -23 -16 -182 -21 -1791 -5 -1818 -5 -1799 -40 -1799 -5 0
-16 20 -25 45 -10 25 -23 50 -31 56 -7 6 -16 24 -19 40 -4 16 -14 35 -23 42
-17 12 -82 102 -82 113 0 3 -22 32 -50 65 -27 33 -54 68 -60 79 -9 17 -128
140 -175 180 -11 10 -31 23 -45 30 -14 7 -32 19 -40 26 -52 46 -88 72 -110 79
-14 4 -38 18 -53 31 -17 14 -42 24 -60 24 -18 0 -50 10 -72 22 -36 20 -54 22
-190 23 -137 0 -153 -2 -190 -23 -22 -12 -56 -22 -76 -22 -21 0 -47 -8 -61
-20 -14 -10 -43 -25 -65 -33 -45 -15 -52 -21 -173 -140 -50 -49 -90 -97 -90
-107 0 -10 10 -31 23 -47 13 -15 27 -35 30 -43 4 -8 23 -35 42 -60 19 -25 43
-56 52 -70 17 -25 65 -79 133 -150 19 -20 74 -78 122 -128 48 -50 95 -104 105
-119 22 -35 102 -137 139 -176 11 -12 33 -44 49 -72 16 -27 41 -63 57 -78 15
-16 28 -32 28 -37 0 -5 11 -21 25 -36 14 -15 25 -32 25 -39 0 -7 14 -29 30
-50 17 -21 30 -42 30 -47 0 -6 11 -23 25 -40 14 -16 25 -35 25 -42 0 -7 11
-23 24 -35 13 -13 27 -37 30 -55 4 -19 15 -41 26 -51 11 -10 20 -25 20 -33 0
-8 11 -34 24 -56 13 -23 29 -58 35 -78 7 -20 18 -42 26 -48 8 -7 17 -27 21
-45 3 -18 17 -42 30 -54 13 -11 24 -31 24 -43 0 -13 14 -50 30 -83 16 -33 30
-70 30 -81 0 -12 7 -27 15 -34 8 -7 22 -36 30 -64 8 -28 24 -64 35 -81 11 -16
20 -37 20 -46 0 -9 11 -36 23 -60 13 -24 27 -57 31 -74 4 -16 13 -37 21 -45 7
-8 18 -33 25 -55 7 -22 21 -54 31 -71 11 -17 19 -38 19 -47 0 -8 11 -29 25
-45 14 -17 28 -44 31 -60 3 -17 17 -41 30 -53 13 -12 24 -33 24 -45 0 -12 11
-35 24 -51 14 -16 28 -42 32 -56 3 -15 14 -32 23 -36 9 -5 22 -26 30 -48 7
-21 19 -45 26 -53 7 -8 16 -25 19 -38 4 -12 16 -27 27 -32 10 -6 26 -25 35
-43 40 -77 186 -251 298 -357 187 -174 264 -233 366 -280 25 -12 52 -27 60
-35 8 -7 31 -16 50 -20 19 -4 46 -16 59 -26 13 -11 35 -19 50 -19 14 0 49 -14
76 -30 34 -20 64 -30 92 -30 23 0 65 -9 93 -20 30 -12 96 -24 164 -30 62 -5
133 -18 157 -27 39 -15 91 -17 459 -18 368 0 420 2 462 17 26 10 97 22 160 29
67 6 127 18 148 29 19 9 62 20 95 24 32 4 67 14 76 22 9 8 39 22 65 30 26 8
57 20 69 28 11 7 36 17 55 21 19 4 46 15 60 25 14 10 36 21 50 25 14 4 41 17
60 29 19 13 58 37 85 54 81 50 315 234 324 255 1 4 10 13 18 20 40 32 88 88
128 148 24 37 51 69 60 72 8 4 15 13 15 20 0 8 11 26 25 41 14 15 25 35 25 45
0 10 14 32 30 49 16 18 30 40 30 50 0 10 11 33 25 52 14 19 25 41 25 51 0 9
10 29 21 44 12 15 26 47 30 72 5 24 18 57 29 73 11 15 20 44 20 63 0 40 14 89
38 132 16 28 17 122 17 1185 l0 1155 -27 39 c-16 21 -28 48 -28 58 0 23 -30
64 -85 116 -21 20 -50 48 -64 61 -13 13 -40 28 -59 33 -20 6 -48 20 -64 31
-28 20 -41 22 -192 22 -145 0 -165 -2 -191 -20 -17 -11 -44 -24 -62 -30 -30
-10 -140 -108 -175 -157 -32 -44 -42 -11 -48 150 -5 126 -9 153 -28 189 -12
23 -22 57 -22 76 0 21 -8 41 -20 52 -11 10 -25 35 -31 55 -11 35 -71 110 -89
110 -5 0 -11 9 -15 19 -3 11 -20 24 -37 30 -18 6 -39 17 -47 25 -9 8 -52 28
-96 45 -69 27 -93 31 -173 31 -63 0 -105 -5 -130 -16 -20 -9 -58 -22 -84 -30
-26 -8 -52 -23 -58 -33 -5 -10 -21 -22 -36 -25 -50 -13 -109 -74 -150 -154
-21 -43 -40 -79 -42 -82 -2 -3 -12 6 -23 19 -13 16 -19 39 -19 76 0 35 -8 71
-25 107 -14 29 -25 65 -25 81 0 15 -9 36 -19 46 -11 11 -27 33 -35 50 -9 16
-45 59 -81 95 -50 50 -77 69 -110 77 -24 6 -51 20 -61 30 -15 17 -33 19 -167
19 -130 0 -154 -3 -181 -19 -17 -11 -49 -24 -72 -30 -28 -7 -60 -29 -100 -69
-113 -111 -164 -171 -164 -195 0 -13 -6 -31 -13 -41 -36 -49 -37 -19 -39 1155
l-3 1144 -27 49 c-16 27 -28 56 -28 64 0 47 -215 252 -265 252 -14 0 -43 9
-65 20 -55 28 -257 29 -310 1z"/>
<path d="M8070 6576 c-20 -8 -56 -17 -79 -21 -24 -4 -64 -20 -89 -36 -25 -16
-58 -29 -72 -29 -15 0 -35 -8 -44 -19 -9 -10 -35 -22 -58 -25 -24 -4 -51 -17
-63 -30 -12 -13 -39 -26 -62 -29 -22 -4 -46 -13 -52 -21 -7 -8 -25 -18 -41
-21 -29 -6 -139 -107 -175 -160 -58 -86 -58 -351 -1 -414 9 -10 16 -23 16 -30
0 -20 83 -103 120 -120 19 -9 48 -25 64 -36 25 -17 47 -20 150 -20 106 0 126
3 157 21 20 12 53 27 75 34 21 7 50 21 63 31 13 11 39 19 57 19 22 0 38 7 47
21 8 11 36 27 63 35 26 8 55 20 63 28 9 7 30 16 47 19 57 11 117 56 215 162
10 11 23 44 29 73 5 29 17 63 25 75 22 32 20 129 -5 179 -11 23 -20 53 -20 66
0 13 -12 39 -27 58 -16 18 -38 47 -51 63 -36 48 -110 91 -191 113 -104 28
-121 29 -161 14z"/>
<path d="M6577 6298 c-21 -35 -24 -490 -4 -507 10 -8 58 -11 158 -9 l144 3 5
185 c4 151 8 191 23 217 22 42 23 109 0 117 -9 4 -83 9 -164 12 -146 5 -148 5
-162 -18z"/>
</g>
</svg>
