<?xml version="1.0" standalone="no"?>
<!DOCTYPE svg PUBLIC "-//W3C//DTD SVG 20010904//EN"
 "http://www.w3.org/TR/2001/REC-SVG-20010904/DTD/svg10.dtd">
<svg version="1.0" xmlns="http://www.w3.org/2000/svg"
 width="726.000000pt" height="1280.000000pt" viewBox="0 0 726.000000 1280.000000"
 preserveAspectRatio="xMidYMid meet">
<metadata>
Created by potrace 1.15, written by Peter Selinger 2001-2017
</metadata>
<g transform="translate(0.000000,1280.000000) scale(0.100000,-0.100000)"
fill="#000000" stroke="none">
<path d="M3575 12763 c-499 -452 -772 -761 -1068 -1209 -852 -1289 -1122
-2868 -791 -4624 137 -727 396 -1521 709 -2176 l64 -134 1131 0 1131 0 69 144
c380 796 671 1780 779 2636 71 563 80 1160 25 1650 -116 1039 -473 1959 -1073
2765 -242 324 -499 601 -847 913 -44 39 -83 72 -85 72 -2 0 -22 -17 -44 -37z
m222 -3078 c386 -73 682 -347 785 -725 20 -74 23 -107 22 -255 0 -194 -15
-264 -82 -409 -54 -115 -112 -198 -201 -287 -126 -126 -282 -216 -453 -262
-70 -18 -109 -22 -248 -22 -196 1 -276 18 -435 96 -269 131 -462 375 -531 674
-28 118 -26 329 4 449 83 332 334 602 661 711 135 44 335 57 478 30z m-32
-2280 c39 -8 112 -35 163 -60 264 -131 415 -435 358 -725 -47 -239 -217 -436
-448 -517 -106 -38 -273 -44 -381 -14 -199 54 -355 180 -441 356 -47 94 -68
189 -67 305 0 115 18 188 73 300 33 69 58 101 127 170 53 53 109 98 146 117
58 30 164 68 215 76 58 10 190 6 255 -8z m-36 -1650 c221 -53 379 -285 342
-505 -22 -133 -88 -239 -191 -309 -143 -95 -321 -107 -471 -30 -52 26 -145
114 -176 166 -132 226 -50 522 179 639 103 53 204 65 317 39z"/>
<path d="M5512 6228 c-23 -73 -67 -238 -97 -367 -90 -382 -179 -626 -387
-1053 -56 -115 -99 -210 -97 -212 15 -13 250 -166 434 -283 786 -499 1294
-755 1604 -808 236 -41 329 56 275 285 -65 280 -337 756 -794 1395 -217 302
-817 1092 -884 1163 -10 10 -21 -15 -54 -120z"/>
<path d="M1573 6178 c-574 -726 -1049 -1392 -1298 -1823 -93 -160 -200 -387
-236 -498 -27 -83 -33 -118 -34 -189 0 -93 11 -119 67 -161 34 -26 155 -34
240 -17 243 47 660 245 1198 568 294 177 820 515 820 528 0 4 -41 89 -90 190
-143 291 -242 526 -305 724 -14 47 -56 204 -91 350 -59 243 -129 490 -139 490
-2 0 -61 -73 -132 -162z"/>
<path d="M2679 4383 c-309 -324 -540 -741 -649 -1172 -59 -234 -81 -414 -81
-671 0 -239 16 -391 67 -620 28 -124 121 -420 133 -420 4 0 17 39 30 88 145
562 316 939 465 1027 58 34 124 34 182 0 241 -141 492 -916 734 -2265 28 -157
53 -296 57 -310 6 -28 3 -43 73 345 215 1192 437 1925 654 2162 66 72 104 93
166 93 175 0 352 -319 526 -948 59 -217 53 -201 66 -179 18 33 78 220 108 337
118 462 116 952 -5 1395 -115 418 -339 821 -620 1114 l-97 101 -868 0 -867 0
-74 -77z"/>
</g>
</svg>
