<?xml version="1.0" standalone="no"?>
<!DOCTYPE svg PUBLIC "-//W3C//DTD SVG 20010904//EN"
 "http://www.w3.org/TR/2001/REC-SVG-20010904/DTD/svg10.dtd">
<svg version="1.0" xmlns="http://www.w3.org/2000/svg"
 width="640.000000pt" height="1280.000000pt" viewBox="0 0 640.000000 1280.000000"
 preserveAspectRatio="xMidYMid meet">
<metadata>
Created by potrace 1.15, written by Peter Selinger 2001-2017
</metadata>
<g transform="translate(0.000000,1280.000000) scale(0.100000,-0.100000)"
fill="#000000" stroke="none">
<path d="M2288 12786 c-10 -7 -26 -33 -36 -57 -18 -42 -18 -88 -12 -1164 l7
-1120 37 -73 c23 -45 62 -100 105 -145 61 -63 78 -76 148 -101 65 -25 139 -72
216 -137 5 -4 -16 -18 -47 -32 -155 -71 -300 -216 -351 -349 -12 -33 -16 -65
-13 -108 5 -67 10 -61 -71 -74 -48 -8 -229 -182 -614 -589 -649 -686 -1107
-1202 -1107 -1248 0 -10 -5 -21 -10 -24 -6 -3 -10 -31 -10 -60 0 -66 18 -80
92 -72 42 5 168 81 1002 599 l955 593 45 75 c28 47 54 106 68 159 22 82 22 86
6 180 -9 53 -15 107 -13 121 2 14 7 45 10 70 l5 45 85 -2 85 -1 0 -4620 c0
-2541 3 -4627 6 -4636 5 -14 27 -16 145 -16 135 0 139 1 144 23 3 12 4 2095 3
4630 -2 2534 -1 4607 2 4606 3 0 45 -51 94 -114 l90 -113 130 -41 c331 -103
693 -199 1441 -380 292 -71 599 -141 683 -156 l152 -27 53 30 c51 29 52 31 53
77 3 103 72 61 -1909 1166 -15 9 -7 20 64 87 l81 77 -64 229 -64 229 -78 50
-77 50 -276 -44 -275 -43 -111 -88 c-61 -48 -113 -86 -114 -84 -1 1 11 35 28
76 36 85 38 66 -38 390 -106 456 -429 1608 -530 1895 -60 171 -88 217 -152
253 -45 26 -41 25 -63 8z"/>
</g>
</svg>
